<mxfile host="app.diagrams.net" agent="Mozilla/5.0 (Windows NT 10.0; Win64; x64; rv:133.0) Gecko/20100101 Firefox/133.0" version="24.8.4">
  <diagram id="6a731a19-8d31-9384-78a2-239565b7b9f0" name="Page-1">
    <mxGraphModel dx="1235" dy="633" grid="1" gridSize="10" guides="1" tooltips="1" connect="1" arrows="1" fold="1" page="1" pageScale="1" pageWidth="1169" pageHeight="827" background="none" math="0" shadow="0">
      <root>
        <mxCell id="0" />
        <mxCell id="1" parent="0" />
        <mxCell id="aZdNWpkULtw_uglptp3B-57" style="edgeStyle=orthogonalEdgeStyle;rounded=0;orthogonalLoop=1;jettySize=auto;html=1;exitX=0.5;exitY=1;exitDx=0;exitDy=0;exitPerimeter=0;entryX=0.5;entryY=0;entryDx=0;entryDy=0;" edge="1" parent="1" source="aZdNWpkULtw_uglptp3B-55" target="aZdNWpkULtw_uglptp3B-56">
          <mxGeometry relative="1" as="geometry" />
        </mxCell>
        <mxCell id="aZdNWpkULtw_uglptp3B-55" value="ΑΡΧΗ" style="strokeWidth=2;html=1;shape=mxgraph.flowchart.start_1;whiteSpace=wrap;" vertex="1" parent="1">
          <mxGeometry x="470" y="10" width="100" height="60" as="geometry" />
        </mxCell>
        <mxCell id="aZdNWpkULtw_uglptp3B-60" value="" style="edgeStyle=orthogonalEdgeStyle;rounded=0;orthogonalLoop=1;jettySize=auto;html=1;" edge="1" parent="1" source="aZdNWpkULtw_uglptp3B-56" target="aZdNWpkULtw_uglptp3B-59">
          <mxGeometry relative="1" as="geometry" />
        </mxCell>
        <mxCell id="aZdNWpkULtw_uglptp3B-56" value="Αρχικοποιήσεις:&lt;br&gt;&lt;div&gt;DDRB = 0xff;&lt;/div&gt;&lt;div&gt;twi_init();&lt;/div&gt;&lt;div&gt;PCA9555_0_write(REG_CONFIGURATION_1, 0xf0);&lt;br&gt;&lt;/div&gt;" style="rounded=1;whiteSpace=wrap;html=1;absoluteArcSize=1;arcSize=14;strokeWidth=2;" vertex="1" parent="1">
          <mxGeometry x="375" y="100" width="290" height="80" as="geometry" />
        </mxCell>
        <mxCell id="aZdNWpkULtw_uglptp3B-63" value="" style="edgeStyle=orthogonalEdgeStyle;rounded=0;orthogonalLoop=1;jettySize=auto;html=1;" edge="1" parent="1" source="aZdNWpkULtw_uglptp3B-59" target="aZdNWpkULtw_uglptp3B-61">
          <mxGeometry relative="1" as="geometry" />
        </mxCell>
        <mxCell id="aZdNWpkULtw_uglptp3B-59" value="Κάλεσε get_code();" style="whiteSpace=wrap;html=1;rounded=1;arcSize=14;strokeWidth=2;" vertex="1" parent="1">
          <mxGeometry x="460" y="220" width="120" height="60" as="geometry" />
        </mxCell>
        <mxCell id="aZdNWpkULtw_uglptp3B-65" value="" style="edgeStyle=orthogonalEdgeStyle;rounded=0;orthogonalLoop=1;jettySize=auto;html=1;" edge="1" parent="1" source="aZdNWpkULtw_uglptp3B-61" target="aZdNWpkULtw_uglptp3B-64">
          <mxGeometry relative="1" as="geometry" />
        </mxCell>
        <mxCell id="aZdNWpkULtw_uglptp3B-61" value="Καθυστέρησε 50msec" style="strokeWidth=2;html=1;shape=mxgraph.flowchart.delay;whiteSpace=wrap;" vertex="1" parent="1">
          <mxGeometry x="470" y="310" width="100" height="60" as="geometry" />
        </mxCell>
        <mxCell id="aZdNWpkULtw_uglptp3B-64" value="(first = keypad_to_ascii()) != 0" style="rhombus;whiteSpace=wrap;html=1;strokeWidth=2;" vertex="1" parent="1">
          <mxGeometry x="426.88" y="400" width="186.25" height="120" as="geometry" />
        </mxCell>
        <mxCell id="aZdNWpkULtw_uglptp3B-66" style="edgeStyle=orthogonalEdgeStyle;rounded=0;orthogonalLoop=1;jettySize=auto;html=1;exitX=0;exitY=0.5;exitDx=0;exitDy=0;entryX=0;entryY=0.5;entryDx=0;entryDy=0;entryPerimeter=0;" edge="1" parent="1" source="aZdNWpkULtw_uglptp3B-64" target="aZdNWpkULtw_uglptp3B-61">
          <mxGeometry relative="1" as="geometry">
            <Array as="points">
              <mxPoint x="370" y="460" />
              <mxPoint x="370" y="340" />
            </Array>
          </mxGeometry>
        </mxCell>
        <mxCell id="aZdNWpkULtw_uglptp3B-67" value="ΝΑΙ" style="text;html=1;align=center;verticalAlign=middle;resizable=0;points=[];autosize=1;strokeColor=none;fillColor=none;" vertex="1" parent="1">
          <mxGeometry x="380" y="430" width="40" height="30" as="geometry" />
        </mxCell>
        <mxCell id="aZdNWpkULtw_uglptp3B-71" value="ΟΧΙ" style="text;html=1;align=center;verticalAlign=middle;resizable=0;points=[];autosize=1;strokeColor=none;fillColor=none;" vertex="1" parent="1">
          <mxGeometry x="520" y="520" width="40" height="30" as="geometry" />
        </mxCell>
        <mxCell id="aZdNWpkULtw_uglptp3B-72" value="" style="edgeStyle=orthogonalEdgeStyle;rounded=0;orthogonalLoop=1;jettySize=auto;html=1;" edge="1" parent="1" source="aZdNWpkULtw_uglptp3B-73" target="aZdNWpkULtw_uglptp3B-74">
          <mxGeometry relative="1" as="geometry" />
        </mxCell>
        <mxCell id="aZdNWpkULtw_uglptp3B-73" value="Καθυστέρησε 50msec" style="strokeWidth=2;html=1;shape=mxgraph.flowchart.delay;whiteSpace=wrap;" vertex="1" parent="1">
          <mxGeometry x="470.01" y="570" width="100" height="60" as="geometry" />
        </mxCell>
        <mxCell id="aZdNWpkULtw_uglptp3B-79" value="" style="edgeStyle=orthogonalEdgeStyle;rounded=0;orthogonalLoop=1;jettySize=auto;html=1;" edge="1" parent="1" source="aZdNWpkULtw_uglptp3B-74" target="aZdNWpkULtw_uglptp3B-78">
          <mxGeometry relative="1" as="geometry" />
        </mxCell>
        <mxCell id="aZdNWpkULtw_uglptp3B-74" value="(second = keypad_to_ascii()) != 0" style="rhombus;whiteSpace=wrap;html=1;strokeWidth=2;" vertex="1" parent="1">
          <mxGeometry x="418.44" y="660" width="203.12" height="130" as="geometry" />
        </mxCell>
        <mxCell id="aZdNWpkULtw_uglptp3B-75" style="edgeStyle=orthogonalEdgeStyle;rounded=0;orthogonalLoop=1;jettySize=auto;html=1;exitX=0;exitY=0.5;exitDx=0;exitDy=0;entryX=0;entryY=0.5;entryDx=0;entryDy=0;entryPerimeter=0;" edge="1" parent="1" source="aZdNWpkULtw_uglptp3B-74" target="aZdNWpkULtw_uglptp3B-73">
          <mxGeometry relative="1" as="geometry">
            <Array as="points">
              <mxPoint x="370" y="725" />
              <mxPoint x="370" y="600" />
            </Array>
          </mxGeometry>
        </mxCell>
        <mxCell id="aZdNWpkULtw_uglptp3B-76" value="ΝΑΙ" style="text;html=1;align=center;verticalAlign=middle;resizable=0;points=[];autosize=1;strokeColor=none;fillColor=none;" vertex="1" parent="1">
          <mxGeometry x="380" y="690" width="40" height="30" as="geometry" />
        </mxCell>
        <mxCell id="aZdNWpkULtw_uglptp3B-77" style="edgeStyle=orthogonalEdgeStyle;rounded=0;orthogonalLoop=1;jettySize=auto;html=1;exitX=0.5;exitY=1;exitDx=0;exitDy=0;entryX=0.5;entryY=0;entryDx=0;entryDy=0;entryPerimeter=0;" edge="1" parent="1" source="aZdNWpkULtw_uglptp3B-64" target="aZdNWpkULtw_uglptp3B-73">
          <mxGeometry relative="1" as="geometry" />
        </mxCell>
        <mxCell id="aZdNWpkULtw_uglptp3B-83" style="edgeStyle=orthogonalEdgeStyle;rounded=0;orthogonalLoop=1;jettySize=auto;html=1;exitX=0;exitY=0.5;exitDx=0;exitDy=0;exitPerimeter=0;entryX=0.5;entryY=0;entryDx=0;entryDy=0;" edge="1" parent="1" source="aZdNWpkULtw_uglptp3B-78" target="aZdNWpkULtw_uglptp3B-82">
          <mxGeometry relative="1" as="geometry" />
        </mxCell>
        <mxCell id="aZdNWpkULtw_uglptp3B-86" style="edgeStyle=orthogonalEdgeStyle;rounded=0;orthogonalLoop=1;jettySize=auto;html=1;exitX=1;exitY=0.5;exitDx=0;exitDy=0;exitPerimeter=0;entryX=0.5;entryY=0;entryDx=0;entryDy=0;" edge="1" parent="1" source="aZdNWpkULtw_uglptp3B-78" target="aZdNWpkULtw_uglptp3B-85">
          <mxGeometry relative="1" as="geometry" />
        </mxCell>
        <mxCell id="aZdNWpkULtw_uglptp3B-78" value="first == &#39;2&#39;&lt;br&gt;&amp;amp;&amp;amp; last == &#39;8&#39;" style="strokeWidth=2;html=1;shape=mxgraph.flowchart.decision;whiteSpace=wrap;" vertex="1" parent="1">
          <mxGeometry x="460" y="830" width="120" height="100" as="geometry" />
        </mxCell>
        <mxCell id="aZdNWpkULtw_uglptp3B-80" value="OXI" style="text;html=1;align=center;verticalAlign=middle;resizable=0;points=[];autosize=1;strokeColor=none;fillColor=none;" vertex="1" parent="1">
          <mxGeometry x="520" y="790" width="40" height="30" as="geometry" />
        </mxCell>
        <mxCell id="aZdNWpkULtw_uglptp3B-89" value="" style="edgeStyle=orthogonalEdgeStyle;rounded=0;orthogonalLoop=1;jettySize=auto;html=1;" edge="1" parent="1" source="aZdNWpkULtw_uglptp3B-82" target="aZdNWpkULtw_uglptp3B-88">
          <mxGeometry relative="1" as="geometry" />
        </mxCell>
        <mxCell id="aZdNWpkULtw_uglptp3B-82" value="Κάλεσε correct()" style="rounded=1;whiteSpace=wrap;html=1;absoluteArcSize=1;arcSize=14;strokeWidth=2;" vertex="1" parent="1">
          <mxGeometry x="340" y="960" width="100" height="50" as="geometry" />
        </mxCell>
        <mxCell id="aZdNWpkULtw_uglptp3B-84" value="ΝΑΙ" style="text;html=1;align=center;verticalAlign=middle;resizable=0;points=[];autosize=1;strokeColor=none;fillColor=none;" vertex="1" parent="1">
          <mxGeometry x="420" y="848" width="40" height="30" as="geometry" />
        </mxCell>
        <mxCell id="aZdNWpkULtw_uglptp3B-97" style="edgeStyle=orthogonalEdgeStyle;rounded=0;orthogonalLoop=1;jettySize=auto;html=1;exitX=0.5;exitY=1;exitDx=0;exitDy=0;entryX=0.5;entryY=0;entryDx=0;entryDy=0;" edge="1" parent="1" source="aZdNWpkULtw_uglptp3B-85" target="aZdNWpkULtw_uglptp3B-96">
          <mxGeometry relative="1" as="geometry" />
        </mxCell>
        <mxCell id="aZdNWpkULtw_uglptp3B-85" value="Κάλεσε wrong()" style="rounded=1;whiteSpace=wrap;html=1;absoluteArcSize=1;arcSize=14;strokeWidth=2;" vertex="1" parent="1">
          <mxGeometry x="600" y="960" width="100" height="50" as="geometry" />
        </mxCell>
        <mxCell id="aZdNWpkULtw_uglptp3B-87" value="ΟΧΙ" style="text;html=1;align=center;verticalAlign=middle;resizable=0;points=[];autosize=1;strokeColor=none;fillColor=none;" vertex="1" parent="1">
          <mxGeometry x="590" y="848" width="40" height="30" as="geometry" />
        </mxCell>
        <mxCell id="aZdNWpkULtw_uglptp3B-88" value="PORTB = 0b00111111;" style="rounded=1;whiteSpace=wrap;html=1;absoluteArcSize=1;arcSize=14;strokeWidth=2;" vertex="1" parent="1">
          <mxGeometry x="325" y="1040" width="130" height="30" as="geometry" />
        </mxCell>
        <mxCell id="aZdNWpkULtw_uglptp3B-95" style="edgeStyle=orthogonalEdgeStyle;rounded=0;orthogonalLoop=1;jettySize=auto;html=1;exitX=0.5;exitY=1;exitDx=0;exitDy=0;exitPerimeter=0;entryX=0.5;entryY=0;entryDx=0;entryDy=0;" edge="1" parent="1" source="aZdNWpkULtw_uglptp3B-90" target="aZdNWpkULtw_uglptp3B-92">
          <mxGeometry relative="1" as="geometry" />
        </mxCell>
        <mxCell id="aZdNWpkULtw_uglptp3B-90" value="Καθυστέρησε 3sec" style="strokeWidth=2;html=1;shape=mxgraph.flowchart.delay;whiteSpace=wrap;" vertex="1" parent="1">
          <mxGeometry x="335" y="1090" width="110" height="30" as="geometry" />
        </mxCell>
        <mxCell id="aZdNWpkULtw_uglptp3B-91" style="edgeStyle=orthogonalEdgeStyle;rounded=0;orthogonalLoop=1;jettySize=auto;html=1;exitX=0.5;exitY=1;exitDx=0;exitDy=0;entryX=0.5;entryY=0;entryDx=0;entryDy=0;entryPerimeter=0;" edge="1" parent="1" source="aZdNWpkULtw_uglptp3B-88" target="aZdNWpkULtw_uglptp3B-90">
          <mxGeometry relative="1" as="geometry" />
        </mxCell>
        <mxCell id="aZdNWpkULtw_uglptp3B-92" value="PORTB = 0;" style="rounded=1;whiteSpace=wrap;html=1;absoluteArcSize=1;arcSize=14;strokeWidth=2;" vertex="1" parent="1">
          <mxGeometry x="325" y="1140" width="130" height="30" as="geometry" />
        </mxCell>
        <mxCell id="aZdNWpkULtw_uglptp3B-117" style="edgeStyle=orthogonalEdgeStyle;rounded=0;orthogonalLoop=1;jettySize=auto;html=1;exitX=0.5;exitY=1;exitDx=0;exitDy=0;exitPerimeter=0;entryX=0;entryY=0.5;entryDx=0;entryDy=0;" edge="1" parent="1" source="aZdNWpkULtw_uglptp3B-93" target="aZdNWpkULtw_uglptp3B-59">
          <mxGeometry relative="1" as="geometry">
            <Array as="points">
              <mxPoint x="390" y="1240" />
              <mxPoint x="240" y="1240" />
              <mxPoint x="240" y="250" />
            </Array>
          </mxGeometry>
        </mxCell>
        <mxCell id="aZdNWpkULtw_uglptp3B-93" value="Καθυστέρησε 2sec" style="strokeWidth=2;html=1;shape=mxgraph.flowchart.delay;whiteSpace=wrap;" vertex="1" parent="1">
          <mxGeometry x="335" y="1190" width="110" height="30" as="geometry" />
        </mxCell>
        <mxCell id="aZdNWpkULtw_uglptp3B-94" style="edgeStyle=orthogonalEdgeStyle;rounded=0;orthogonalLoop=1;jettySize=auto;html=1;exitX=0.5;exitY=1;exitDx=0;exitDy=0;entryX=0.5;entryY=0;entryDx=0;entryDy=0;entryPerimeter=0;" edge="1" parent="1" source="aZdNWpkULtw_uglptp3B-92" target="aZdNWpkULtw_uglptp3B-93">
          <mxGeometry relative="1" as="geometry" />
        </mxCell>
        <mxCell id="aZdNWpkULtw_uglptp3B-99" value="" style="edgeStyle=orthogonalEdgeStyle;rounded=0;orthogonalLoop=1;jettySize=auto;html=1;" edge="1" parent="1" source="aZdNWpkULtw_uglptp3B-96" target="aZdNWpkULtw_uglptp3B-98">
          <mxGeometry relative="1" as="geometry" />
        </mxCell>
        <mxCell id="aZdNWpkULtw_uglptp3B-96" value="&lt;div&gt;t = 0&lt;/div&gt;" style="rounded=1;whiteSpace=wrap;html=1;absoluteArcSize=1;arcSize=14;strokeWidth=2;" vertex="1" parent="1">
          <mxGeometry x="600" y="1040" width="100" height="30" as="geometry" />
        </mxCell>
        <mxCell id="aZdNWpkULtw_uglptp3B-112" style="edgeStyle=orthogonalEdgeStyle;rounded=0;orthogonalLoop=1;jettySize=auto;html=1;exitX=0.5;exitY=1;exitDx=0;exitDy=0;entryX=0.5;entryY=0;entryDx=0;entryDy=0;" edge="1" parent="1" source="aZdNWpkULtw_uglptp3B-98" target="aZdNWpkULtw_uglptp3B-102">
          <mxGeometry relative="1" as="geometry" />
        </mxCell>
        <mxCell id="aZdNWpkULtw_uglptp3B-115" style="edgeStyle=orthogonalEdgeStyle;rounded=0;orthogonalLoop=1;jettySize=auto;html=1;exitX=1;exitY=0.5;exitDx=0;exitDy=0;entryX=1;entryY=0.5;entryDx=0;entryDy=0;" edge="1" parent="1" source="aZdNWpkULtw_uglptp3B-98" target="aZdNWpkULtw_uglptp3B-59">
          <mxGeometry relative="1" as="geometry">
            <Array as="points">
              <mxPoint x="800" y="1120" />
              <mxPoint x="800" y="250" />
            </Array>
          </mxGeometry>
        </mxCell>
        <mxCell id="aZdNWpkULtw_uglptp3B-98" value="t &amp;lt; 5" style="rhombus;whiteSpace=wrap;html=1;rounded=1;arcSize=14;strokeWidth=2;" vertex="1" parent="1">
          <mxGeometry x="610" y="1090" width="80" height="60" as="geometry" />
        </mxCell>
        <mxCell id="aZdNWpkULtw_uglptp3B-102" value="PORTB = 0b00111111;" style="rounded=1;whiteSpace=wrap;html=1;absoluteArcSize=1;arcSize=14;strokeWidth=2;" vertex="1" parent="1">
          <mxGeometry x="585" y="1190" width="130" height="30" as="geometry" />
        </mxCell>
        <mxCell id="aZdNWpkULtw_uglptp3B-103" style="edgeStyle=orthogonalEdgeStyle;rounded=0;orthogonalLoop=1;jettySize=auto;html=1;exitX=0.5;exitY=1;exitDx=0;exitDy=0;exitPerimeter=0;entryX=0.5;entryY=0;entryDx=0;entryDy=0;" edge="1" parent="1" source="aZdNWpkULtw_uglptp3B-104" target="aZdNWpkULtw_uglptp3B-106">
          <mxGeometry relative="1" as="geometry" />
        </mxCell>
        <mxCell id="aZdNWpkULtw_uglptp3B-104" value="Καθυστέρησε 500msec" style="strokeWidth=2;html=1;shape=mxgraph.flowchart.delay;whiteSpace=wrap;" vertex="1" parent="1">
          <mxGeometry x="587.5" y="1240" width="125" height="30" as="geometry" />
        </mxCell>
        <mxCell id="aZdNWpkULtw_uglptp3B-105" style="edgeStyle=orthogonalEdgeStyle;rounded=0;orthogonalLoop=1;jettySize=auto;html=1;exitX=0.5;exitY=1;exitDx=0;exitDy=0;entryX=0.5;entryY=0;entryDx=0;entryDy=0;entryPerimeter=0;" edge="1" parent="1" source="aZdNWpkULtw_uglptp3B-102" target="aZdNWpkULtw_uglptp3B-104">
          <mxGeometry relative="1" as="geometry" />
        </mxCell>
        <mxCell id="aZdNWpkULtw_uglptp3B-106" value="PORTB = 0;" style="rounded=1;whiteSpace=wrap;html=1;absoluteArcSize=1;arcSize=14;strokeWidth=2;" vertex="1" parent="1">
          <mxGeometry x="585" y="1290" width="130" height="30" as="geometry" />
        </mxCell>
        <mxCell id="aZdNWpkULtw_uglptp3B-119" style="edgeStyle=orthogonalEdgeStyle;rounded=0;orthogonalLoop=1;jettySize=auto;html=1;exitX=0.5;exitY=1;exitDx=0;exitDy=0;exitPerimeter=0;entryX=0.5;entryY=0;entryDx=0;entryDy=0;" edge="1" parent="1" source="aZdNWpkULtw_uglptp3B-107" target="aZdNWpkULtw_uglptp3B-118">
          <mxGeometry relative="1" as="geometry" />
        </mxCell>
        <mxCell id="aZdNWpkULtw_uglptp3B-107" value="Καθυστέρησε 500msec" style="strokeWidth=2;html=1;shape=mxgraph.flowchart.delay;whiteSpace=wrap;" vertex="1" parent="1">
          <mxGeometry x="587.5" y="1340" width="125" height="30" as="geometry" />
        </mxCell>
        <mxCell id="aZdNWpkULtw_uglptp3B-108" style="edgeStyle=orthogonalEdgeStyle;rounded=0;orthogonalLoop=1;jettySize=auto;html=1;exitX=0.5;exitY=1;exitDx=0;exitDy=0;entryX=0.5;entryY=0;entryDx=0;entryDy=0;entryPerimeter=0;" edge="1" parent="1" source="aZdNWpkULtw_uglptp3B-106" target="aZdNWpkULtw_uglptp3B-107">
          <mxGeometry relative="1" as="geometry" />
        </mxCell>
        <mxCell id="aZdNWpkULtw_uglptp3B-114" value="NAI" style="text;html=1;align=center;verticalAlign=middle;resizable=0;points=[];autosize=1;strokeColor=none;fillColor=none;" vertex="1" parent="1">
          <mxGeometry x="650" y="1150" width="40" height="30" as="geometry" />
        </mxCell>
        <mxCell id="aZdNWpkULtw_uglptp3B-116" value="ΟΧΙ" style="text;html=1;align=center;verticalAlign=middle;resizable=0;points=[];autosize=1;strokeColor=none;fillColor=none;" vertex="1" parent="1">
          <mxGeometry x="690" y="1090" width="40" height="30" as="geometry" />
        </mxCell>
        <mxCell id="aZdNWpkULtw_uglptp3B-120" style="edgeStyle=orthogonalEdgeStyle;rounded=0;orthogonalLoop=1;jettySize=auto;html=1;exitX=0.5;exitY=1;exitDx=0;exitDy=0;entryX=0;entryY=0.5;entryDx=0;entryDy=0;" edge="1" parent="1" source="aZdNWpkULtw_uglptp3B-118" target="aZdNWpkULtw_uglptp3B-98">
          <mxGeometry relative="1" as="geometry">
            <Array as="points">
              <mxPoint x="650" y="1440" />
              <mxPoint x="540" y="1440" />
              <mxPoint x="540" y="1120" />
            </Array>
          </mxGeometry>
        </mxCell>
        <mxCell id="aZdNWpkULtw_uglptp3B-118" value="t++;" style="rounded=1;whiteSpace=wrap;html=1;absoluteArcSize=1;arcSize=14;strokeWidth=2;" vertex="1" parent="1">
          <mxGeometry x="585" y="1390" width="130" height="30" as="geometry" />
        </mxCell>
      </root>
    </mxGraphModel>
  </diagram>
</mxfile>
